<mxfile host="app.diagrams.net" modified="2024-07-01T10:50:02.054Z" agent="Mozilla/5.0 (Windows NT 10.0; Win64; x64) AppleWebKit/537.36 (KHTML, like Gecko) Chrome/126.0.0.0 Safari/537.36" etag="XNP5CtLZo2jXWrpagItW" version="24.6.4" type="github">
  <diagram name="第 1 页" id="nnVzriY817aK6upAByUt">
    <mxGraphModel dx="1259" dy="1487" grid="1" gridSize="10" guides="1" tooltips="1" connect="1" arrows="1" fold="1" page="1" pageScale="1" pageWidth="1169" pageHeight="827" math="0" shadow="0">
      <root>
        <mxCell id="0" />
        <mxCell id="1" parent="0" />
        <mxCell id="IZAcpLGcn0O7dUQG-KDH-59" value="" style="swimlane;startSize=0;" parent="1" vertex="1">
          <mxGeometry x="530" y="5" width="120" height="50" as="geometry" />
        </mxCell>
        <mxCell id="IZAcpLGcn0O7dUQG-KDH-60" value="&lt;font style=&quot;font-size: 16px;&quot;&gt;API网关&lt;/font&gt;" style="text;html=1;align=center;verticalAlign=middle;resizable=0;points=[];autosize=1;strokeColor=none;fillColor=none;" parent="IZAcpLGcn0O7dUQG-KDH-59" vertex="1">
          <mxGeometry x="20" y="10" width="80" height="30" as="geometry" />
        </mxCell>
        <mxCell id="IZAcpLGcn0O7dUQG-KDH-61" style="edgeStyle=orthogonalEdgeStyle;rounded=0;orthogonalLoop=1;jettySize=auto;html=1;" parent="1" source="IZAcpLGcn0O7dUQG-KDH-59" target="IZAcpLGcn0O7dUQG-KDH-21" edge="1">
          <mxGeometry relative="1" as="geometry" />
        </mxCell>
        <mxCell id="IOApL9gUnErQdoZSXAKU-7" style="edgeStyle=orthogonalEdgeStyle;rounded=0;orthogonalLoop=1;jettySize=auto;html=1;exitX=1;exitY=0.5;exitDx=0;exitDy=0;entryX=0.5;entryY=1;entryDx=0;entryDy=0;" edge="1" parent="1" source="IZAcpLGcn0O7dUQG-KDH-16" target="IZAcpLGcn0O7dUQG-KDH-59">
          <mxGeometry relative="1" as="geometry" />
        </mxCell>
        <mxCell id="IZAcpLGcn0O7dUQG-KDH-16" value="" style="swimlane;startSize=0;" parent="1" vertex="1">
          <mxGeometry x="160" y="244" width="150" height="170" as="geometry">
            <mxRectangle x="50" y="490" width="50" height="40" as="alternateBounds" />
          </mxGeometry>
        </mxCell>
        <UserObject label="&lt;div style=&quot;font-size: 1px&quot;&gt;&lt;p style=&quot;text-align:center;margin-left:0;margin-right:0;margin-top:0px;margin-bottom:0px;text-indent:0;vertical-align:middle;direction:ltr;&quot;&gt;&lt;span style=&quot;font-size: 14px;&quot;&gt;H5&lt;/span&gt;&lt;br&gt;&lt;/p&gt;&lt;/div&gt;" tags="Background" id="IZAcpLGcn0O7dUQG-KDH-18">
          <mxCell style="verticalAlign=middle;align=center;overflow=width;vsdxID=72;fillColor=#ccffe6;gradientColor=none;shape=stencil(jZHdDoMgDIWfpvdYLpZdO/ceJuJoZGCQ/b39YNXMmcX0rge+Q1sO6Hqy7WgA1ZRiGMyDumRBnwCRvDWRUq5AN6DrPkRzieHmO9ZjW8hSXcO9vPBkHx6LBdWLpfqoM5OO/Io8VFKyUuoHnXuI2LmLZILF+pfd7LXLyieQ77X3r7n4xtGTc5zm+n4bXz7i6HXzBg==);strokeColor=#00cccc;spacingTop=-3;spacingBottom=-3;spacingLeft=-3;spacingRight=-3;points=[];labelBackgroundColor=none;rounded=0;html=1;whiteSpace=wrap;" parent="IZAcpLGcn0O7dUQG-KDH-16" vertex="1">
            <mxGeometry x="13" y="60" width="52" height="60" as="geometry" />
          </mxCell>
        </UserObject>
        <mxCell id="IZAcpLGcn0O7dUQG-KDH-19" value="前端页面" style="text;html=1;align=center;verticalAlign=middle;resizable=0;points=[];autosize=1;strokeColor=none;fillColor=none;fontSize=17;" parent="IZAcpLGcn0O7dUQG-KDH-16" vertex="1">
          <mxGeometry x="25" y="16" width="90" height="30" as="geometry" />
        </mxCell>
        <UserObject label="&lt;div style=&quot;&quot;&gt;&lt;p style=&quot;text-align: center; margin: 0px; text-indent: 0px; vertical-align: middle; direction: ltr;&quot;&gt;&lt;span style=&quot;font-size: 14px;&quot;&gt;T-WDF&lt;/span&gt;&lt;br&gt;&lt;/p&gt;&lt;/div&gt;" tags="Background" id="IZAcpLGcn0O7dUQG-KDH-63">
          <mxCell style="verticalAlign=middle;align=center;overflow=width;vsdxID=72;fillColor=#ccffe6;gradientColor=none;shape=stencil(jZHdDoMgDIWfpvdYLpZdO/ceJuJoZGCQ/b39YNXMmcX0rge+Q1sO6Hqy7WgA1ZRiGMyDumRBnwCRvDWRUq5AN6DrPkRzieHmO9ZjW8hSXcO9vPBkHx6LBdWLpfqoM5OO/Io8VFKyUuoHnXuI2LmLZILF+pfd7LXLyieQ77X3r7n4xtGTc5zm+n4bXz7i6HXzBg==);strokeColor=#00cccc;spacingTop=-3;spacingBottom=-3;spacingLeft=-3;spacingRight=-3;points=[];labelBackgroundColor=none;rounded=0;html=1;whiteSpace=wrap;" parent="IZAcpLGcn0O7dUQG-KDH-16" vertex="1">
            <mxGeometry x="80" y="60" width="52" height="60" as="geometry" />
          </mxCell>
        </UserObject>
        <mxCell id="IOApL9gUnErQdoZSXAKU-2" value="瀚海平台" style="text;html=1;align=center;verticalAlign=middle;whiteSpace=wrap;rounded=0;" vertex="1" parent="IZAcpLGcn0O7dUQG-KDH-16">
          <mxGeometry x="45" y="140" width="60" height="30" as="geometry" />
        </mxCell>
        <mxCell id="IZAcpLGcn0O7dUQG-KDH-67" value="内部员工渠道整合平台" style="whiteSpace=wrap;html=1;" parent="1" vertex="1">
          <mxGeometry x="630" y="300" width="170" height="40" as="geometry" />
        </mxCell>
        <mxCell id="IOApL9gUnErQdoZSXAKU-1" value="P2" style="text;html=1;align=center;verticalAlign=middle;whiteSpace=wrap;rounded=0;" vertex="1" parent="1">
          <mxGeometry x="630" y="300" width="30" height="30" as="geometry" />
        </mxCell>
        <mxCell id="IOApL9gUnErQdoZSXAKU-14" style="edgeStyle=orthogonalEdgeStyle;rounded=0;orthogonalLoop=1;jettySize=auto;html=1;exitX=0.25;exitY=1;exitDx=0;exitDy=0;" edge="1" parent="1" source="IZAcpLGcn0O7dUQG-KDH-21" target="IZAcpLGcn0O7dUQG-KDH-64">
          <mxGeometry relative="1" as="geometry" />
        </mxCell>
        <mxCell id="IOApL9gUnErQdoZSXAKU-16" style="edgeStyle=orthogonalEdgeStyle;rounded=0;orthogonalLoop=1;jettySize=auto;html=1;exitX=0.75;exitY=1;exitDx=0;exitDy=0;" edge="1" parent="1" source="IZAcpLGcn0O7dUQG-KDH-21" target="IOApL9gUnErQdoZSXAKU-15">
          <mxGeometry relative="1" as="geometry" />
        </mxCell>
        <mxCell id="IZAcpLGcn0O7dUQG-KDH-21" value="" style="swimlane;startSize=0;dashed=1;fillColor=#d80073;strokeColor=#A50040;fontColor=#ffffff;" parent="1" vertex="1">
          <mxGeometry x="751" y="-120" width="411" height="270" as="geometry" />
        </mxCell>
        <mxCell id="ZxG8DOypIiTcq-T04Ppu-20" value="攻击日志分析" style="rounded=1;whiteSpace=wrap;html=1;fontSize=14;fillColor=#d5e8d4;strokeColor=#82b366;" parent="IZAcpLGcn0O7dUQG-KDH-21" vertex="1">
          <mxGeometry x="70.5" y="53" width="120" height="50" as="geometry" />
        </mxCell>
        <mxCell id="ZxG8DOypIiTcq-T04Ppu-21" value="节点管理" style="rounded=1;whiteSpace=wrap;html=1;fontSize=14;fillColor=#d5e8d4;strokeColor=#82b366;" parent="IZAcpLGcn0O7dUQG-KDH-21" vertex="1">
          <mxGeometry x="70.5" y="113" width="120" height="50" as="geometry" />
        </mxCell>
        <mxCell id="IZAcpLGcn0O7dUQG-KDH-22" value="服务集群" style="text;html=1;align=center;verticalAlign=middle;resizable=0;points=[];autosize=1;strokeColor=none;fillColor=none;fontSize=17;" parent="IZAcpLGcn0O7dUQG-KDH-21" vertex="1">
          <mxGeometry x="85.5" y="10" width="90" height="30" as="geometry" />
        </mxCell>
        <mxCell id="IZAcpLGcn0O7dUQG-KDH-45" value="防护管理" style="rounded=1;whiteSpace=wrap;html=1;fontSize=14;fillColor=#d5e8d4;strokeColor=#82b366;" parent="IZAcpLGcn0O7dUQG-KDH-21" vertex="1">
          <mxGeometry x="70.5" y="178" width="120" height="50" as="geometry" />
        </mxCell>
        <mxCell id="IOApL9gUnErQdoZSXAKU-3" value="SCA" style="rounded=1;whiteSpace=wrap;html=1;fontSize=14;fillColor=#d5e8d4;strokeColor=#82b366;" vertex="1" parent="IZAcpLGcn0O7dUQG-KDH-21">
          <mxGeometry x="240" y="53" width="120" height="50" as="geometry" />
        </mxCell>
        <mxCell id="IOApL9gUnErQdoZSXAKU-4" value="基线检查" style="rounded=1;whiteSpace=wrap;html=1;fontSize=14;fillColor=#d5e8d4;strokeColor=#82b366;" vertex="1" parent="IZAcpLGcn0O7dUQG-KDH-21">
          <mxGeometry x="240" y="113" width="120" height="50" as="geometry" />
        </mxCell>
        <mxCell id="IOApL9gUnErQdoZSXAKU-20" value="告警" style="rounded=1;whiteSpace=wrap;html=1;fontSize=14;fillColor=#d5e8d4;strokeColor=#82b366;" vertex="1" parent="IZAcpLGcn0O7dUQG-KDH-21">
          <mxGeometry x="240" y="178" width="120" height="50" as="geometry" />
        </mxCell>
        <mxCell id="IZAcpLGcn0O7dUQG-KDH-50" style="edgeStyle=orthogonalEdgeStyle;rounded=0;orthogonalLoop=1;jettySize=auto;html=1;exitX=1;exitY=0.25;exitDx=0;exitDy=0;entryX=0;entryY=0.5;entryDx=0;entryDy=0;" parent="1" source="IZAcpLGcn0O7dUQG-KDH-21" target="IZAcpLGcn0O7dUQG-KDH-27" edge="1">
          <mxGeometry relative="1" as="geometry" />
        </mxCell>
        <mxCell id="IZAcpLGcn0O7dUQG-KDH-48" style="edgeStyle=orthogonalEdgeStyle;rounded=0;orthogonalLoop=1;jettySize=auto;html=1;exitX=1;exitY=0.5;exitDx=0;exitDy=0;entryX=0;entryY=0.5;entryDx=0;entryDy=0;" parent="1" source="IZAcpLGcn0O7dUQG-KDH-21" target="IZAcpLGcn0O7dUQG-KDH-53" edge="1">
          <mxGeometry relative="1" as="geometry" />
        </mxCell>
        <mxCell id="IZAcpLGcn0O7dUQG-KDH-56" style="edgeStyle=orthogonalEdgeStyle;rounded=0;orthogonalLoop=1;jettySize=auto;html=1;exitX=1;exitY=0.75;exitDx=0;exitDy=0;entryX=0;entryY=0.5;entryDx=0;entryDy=0;entryPerimeter=0;" parent="1" source="IZAcpLGcn0O7dUQG-KDH-21" target="IZAcpLGcn0O7dUQG-KDH-52" edge="1">
          <mxGeometry relative="1" as="geometry" />
        </mxCell>
        <mxCell id="IZAcpLGcn0O7dUQG-KDH-64" value="TDMQ" style="sketch=0;points=[[0,0,0],[0.25,0,0],[0.5,0,0],[0.75,0,0],[1,0,0],[0,1,0],[0.25,1,0],[0.5,1,0],[0.75,1,0],[1,1,0],[0,0.25,0],[0,0.5,0],[0,0.75,0],[1,0.25,0],[1,0.5,0],[1,0.75,0]];outlineConnect=0;fontColor=#232F3E;fillColor=#E7157B;strokeColor=#ffffff;dashed=0;verticalLabelPosition=bottom;verticalAlign=top;align=center;html=1;fontSize=16;fontStyle=0;aspect=fixed;shape=mxgraph.aws4.resourceIcon;resIcon=mxgraph.aws4.mq;" parent="1" vertex="1">
          <mxGeometry x="900" y="400" width="78" height="78" as="geometry" />
        </mxCell>
        <mxCell id="IZAcpLGcn0O7dUQG-KDH-52" value="&lt;font style=&quot;font-size: 16px;&quot;&gt;文件服务&lt;/font&gt;" style="sketch=0;points=[[0,0,0],[0.25,0,0],[0.5,0,0],[0.75,0,0],[1,0,0],[0,1,0],[0.25,1,0],[0.5,1,0],[0.75,1,0],[1,1,0],[0,0.25,0],[0,0.5,0],[0,0.75,0],[1,0.25,0],[1,0.5,0],[1,0.75,0]];outlineConnect=0;fontColor=#232F3E;fillColor=#7AA116;strokeColor=#ffffff;dashed=0;verticalLabelPosition=bottom;verticalAlign=top;align=center;html=1;fontSize=12;fontStyle=0;aspect=fixed;shape=mxgraph.aws4.resourceIcon;resIcon=mxgraph.aws4.elastic_file_system;" parent="1" vertex="1">
          <mxGeometry x="1430" y="130" width="78" height="78" as="geometry" />
        </mxCell>
        <mxCell id="IOApL9gUnErQdoZSXAKU-12" style="edgeStyle=orthogonalEdgeStyle;rounded=0;orthogonalLoop=1;jettySize=auto;html=1;exitX=0.75;exitY=1;exitDx=0;exitDy=0;entryX=0.643;entryY=0.004;entryDx=0;entryDy=0;entryPerimeter=0;" edge="1" parent="1" source="IZAcpLGcn0O7dUQG-KDH-33" target="IZAcpLGcn0O7dUQG-KDH-21">
          <mxGeometry relative="1" as="geometry" />
        </mxCell>
        <mxCell id="IZAcpLGcn0O7dUQG-KDH-33" value="" style="swimlane;startSize=0;dashed=1;dashPattern=12 12;fontSize=13;" parent="1" vertex="1">
          <mxGeometry x="840" y="-440" width="233" height="99" as="geometry" />
        </mxCell>
        <mxCell id="IZAcpLGcn0O7dUQG-KDH-35" value="企业级注册中心" style="rounded=1;whiteSpace=wrap;html=1;fontSize=14;" parent="IZAcpLGcn0O7dUQG-KDH-33" vertex="1">
          <mxGeometry x="50" y="29" width="130" height="42" as="geometry" />
        </mxCell>
        <mxCell id="IZAcpLGcn0O7dUQG-KDH-34" value="P5" style="text;html=1;align=center;verticalAlign=middle;resizable=0;points=[];autosize=1;strokeColor=none;fillColor=none;fontSize=16;" parent="IZAcpLGcn0O7dUQG-KDH-33" vertex="1">
          <mxGeometry width="40" height="30" as="geometry" />
        </mxCell>
        <mxCell id="IZAcpLGcn0O7dUQG-KDH-53" value="" style="swimlane;startSize=0;" parent="1" vertex="1">
          <mxGeometry x="1440" y="-60" width="200" height="125" as="geometry" />
        </mxCell>
        <mxCell id="IZAcpLGcn0O7dUQG-KDH-46" value="CRedis" style="outlineConnect=0;dashed=0;verticalLabelPosition=bottom;verticalAlign=top;align=center;html=1;shape=mxgraph.aws3.redis;fillColor=#2E73B8;gradientColor=none;" parent="IZAcpLGcn0O7dUQG-KDH-53" vertex="1">
          <mxGeometry x="20" y="36" width="60" height="63" as="geometry" />
        </mxCell>
        <mxCell id="IZAcpLGcn0O7dUQG-KDH-55" value="CRedis" style="outlineConnect=0;dashed=0;verticalLabelPosition=bottom;verticalAlign=top;align=center;html=1;shape=mxgraph.aws3.redis;fillColor=#2E73B8;gradientColor=none;" parent="IZAcpLGcn0O7dUQG-KDH-53" vertex="1">
          <mxGeometry x="120" y="36" width="60" height="63" as="geometry" />
        </mxCell>
        <mxCell id="IZAcpLGcn0O7dUQG-KDH-49" value="缓存集群" style="text;html=1;align=center;verticalAlign=middle;whiteSpace=wrap;rounded=0;fontSize=17;" parent="IZAcpLGcn0O7dUQG-KDH-53" vertex="1">
          <mxGeometry x="65" y="9" width="70" height="20" as="geometry" />
        </mxCell>
        <mxCell id="IZAcpLGcn0O7dUQG-KDH-27" value="" style="swimlane;startSize=0;dashed=1;dashPattern=12 12;" parent="1" vertex="1">
          <mxGeometry x="1430" y="-380" width="200" height="235" as="geometry" />
        </mxCell>
        <mxCell id="IZAcpLGcn0O7dUQG-KDH-28" value="数据库集群" style="text;html=1;align=center;verticalAlign=middle;resizable=0;points=[];autosize=1;strokeColor=none;fillColor=none;strokeWidth=1;fontSize=17;" parent="IZAcpLGcn0O7dUQG-KDH-27" vertex="1">
          <mxGeometry x="45" y="5" width="110" height="30" as="geometry" />
        </mxCell>
        <mxCell id="IZAcpLGcn0O7dUQG-KDH-47" value="TDSQL" style="verticalLabelPosition=bottom;html=1;verticalAlign=top;align=center;strokeColor=none;fillColor=#00BEF2;shape=mxgraph.azure.sql_database;" parent="IZAcpLGcn0O7dUQG-KDH-27" vertex="1">
          <mxGeometry x="123" y="60" width="61" height="59" as="geometry" />
        </mxCell>
        <mxCell id="IZAcpLGcn0O7dUQG-KDH-51" value="TDSQL" style="verticalLabelPosition=bottom;html=1;verticalAlign=top;align=center;strokeColor=none;fillColor=#00BEF2;shape=mxgraph.azure.sql_database;" parent="IZAcpLGcn0O7dUQG-KDH-27" vertex="1">
          <mxGeometry x="20" y="60" width="61" height="59" as="geometry" />
        </mxCell>
        <mxCell id="IZAcpLGcn0O7dUQG-KDH-43" value="注册&lt;div style=&quot;font-size: 15px;&quot;&gt;服务&lt;/div&gt;" style="text;html=1;align=center;verticalAlign=middle;whiteSpace=wrap;rounded=0;fontSize=15;" parent="1" vertex="1">
          <mxGeometry x="850" y="-260" width="59" height="50" as="geometry" />
        </mxCell>
        <mxCell id="IZAcpLGcn0O7dUQG-KDH-44" value="&lt;div style=&quot;font-size: 15px;&quot;&gt;获取&lt;/div&gt;&lt;div style=&quot;font-size: 15px;&quot;&gt;服务&lt;/div&gt;" style="text;html=1;align=center;verticalAlign=middle;whiteSpace=wrap;rounded=0;fontSize=15;" parent="1" vertex="1">
          <mxGeometry x="1030" y="-270" width="59" height="50" as="geometry" />
        </mxCell>
        <mxCell id="IOApL9gUnErQdoZSXAKU-6" style="edgeStyle=orthogonalEdgeStyle;rounded=0;orthogonalLoop=1;jettySize=auto;html=1;entryX=0;entryY=0.5;entryDx=0;entryDy=0;" edge="1" parent="1" source="IOApL9gUnErQdoZSXAKU-5" target="IZAcpLGcn0O7dUQG-KDH-59">
          <mxGeometry relative="1" as="geometry" />
        </mxCell>
        <mxCell id="IOApL9gUnErQdoZSXAKU-5" value="agent" style="rounded=1;whiteSpace=wrap;html=1;fillColor=#f8cecc;strokeColor=#b85450;fontSize=20;" vertex="1" parent="1">
          <mxGeometry x="100" width="110" height="60" as="geometry" />
        </mxCell>
        <mxCell id="IOApL9gUnErQdoZSXAKU-8" value="密钥集中管理平台" style="rounded=1;whiteSpace=wrap;html=1;fontSize=16;" vertex="1" parent="1">
          <mxGeometry x="291" y="-111" width="157" height="51" as="geometry" />
        </mxCell>
        <mxCell id="IOApL9gUnErQdoZSXAKU-9" value="" style="endArrow=classic;html=1;rounded=0;" edge="1" parent="1" target="IOApL9gUnErQdoZSXAKU-8">
          <mxGeometry width="50" height="50" relative="1" as="geometry">
            <mxPoint x="370" y="30" as="sourcePoint" />
            <mxPoint x="440" y="120" as="targetPoint" />
          </mxGeometry>
        </mxCell>
        <mxCell id="IOApL9gUnErQdoZSXAKU-10" value="加密通信" style="text;html=1;align=center;verticalAlign=middle;whiteSpace=wrap;rounded=0;fontSize=16;" vertex="1" parent="1">
          <mxGeometry x="270" width="90" height="30" as="geometry" />
        </mxCell>
        <mxCell id="IOApL9gUnErQdoZSXAKU-11" value="" style="endArrow=classic;html=1;rounded=0;exitX=0.394;exitY=-0.005;exitDx=0;exitDy=0;exitPerimeter=0;" edge="1" parent="1" source="IZAcpLGcn0O7dUQG-KDH-21">
          <mxGeometry width="50" height="50" relative="1" as="geometry">
            <mxPoint x="870" y="-260" as="sourcePoint" />
            <mxPoint x="913" y="-340" as="targetPoint" />
          </mxGeometry>
        </mxCell>
        <mxCell id="IOApL9gUnErQdoZSXAKU-15" value="分布式批量调度引擎" style="image;sketch=0;aspect=fixed;html=1;points=[];align=center;fontSize=12;image=img/lib/mscae/SchedulerJobCollection.svg;" vertex="1" parent="1">
          <mxGeometry x="1260" y="340" width="130" height="111.8" as="geometry" />
        </mxCell>
        <mxCell id="IOApL9gUnErQdoZSXAKU-18" value="定时任务执行" style="text;html=1;align=center;verticalAlign=middle;whiteSpace=wrap;rounded=0;" vertex="1" parent="1">
          <mxGeometry x="1140" y="250" width="90" height="30" as="geometry" />
        </mxCell>
        <mxCell id="IOApL9gUnErQdoZSXAKU-19" value="攻击日志外发" style="text;html=1;align=center;verticalAlign=middle;whiteSpace=wrap;rounded=0;" vertex="1" parent="1">
          <mxGeometry x="870" y="230" width="80" height="30" as="geometry" />
        </mxCell>
        <mxCell id="IOApL9gUnErQdoZSXAKU-21" value="数据存储" style="text;html=1;align=center;verticalAlign=middle;whiteSpace=wrap;rounded=0;" vertex="1" parent="1">
          <mxGeometry x="1230" y="-150" width="60" height="30" as="geometry" />
        </mxCell>
        <mxCell id="IOApL9gUnErQdoZSXAKU-22" value="数据缓存" style="text;html=1;align=center;verticalAlign=middle;whiteSpace=wrap;rounded=0;" vertex="1" parent="1">
          <mxGeometry x="1230" y="-12.5" width="60" height="30" as="geometry" />
        </mxCell>
        <mxCell id="IOApL9gUnErQdoZSXAKU-23" value="分布式文件中心" style="text;html=1;align=center;verticalAlign=middle;whiteSpace=wrap;rounded=0;" vertex="1" parent="1">
          <mxGeometry x="1240" y="65" width="100" height="35" as="geometry" />
        </mxCell>
        <mxCell id="IOApL9gUnErQdoZSXAKU-26" style="edgeStyle=orthogonalEdgeStyle;rounded=0;orthogonalLoop=1;jettySize=auto;html=1;exitX=1;exitY=0.5;exitDx=0;exitDy=0;" edge="1" parent="1" source="IOApL9gUnErQdoZSXAKU-25" target="IZAcpLGcn0O7dUQG-KDH-67">
          <mxGeometry relative="1" as="geometry" />
        </mxCell>
        <mxCell id="IOApL9gUnErQdoZSXAKU-25" value="员工身份认证组件" style="rounded=1;whiteSpace=wrap;html=1;" vertex="1" parent="1">
          <mxGeometry x="530" y="184" width="120" height="60" as="geometry" />
        </mxCell>
      </root>
    </mxGraphModel>
  </diagram>
</mxfile>
